HIERARCHY
ROOT hip
{
	OFFSET 0.000000 0.000000 0.000000 
	CHANNELS 6 Xposition Yposition Zposition Xrotation Zrotation Yrotation
	JOINT abdomen
	{
		OFFSET 0.000000 3.402643 0.000000 
		CHANNELS 3 Xrotation Zrotation Yrotation
		JOINT chest
		{
			OFFSET 0.000000 8.438565 -0.680529 
			CHANNELS 3 Xrotation Zrotation Yrotation
			JOINT neck
			{
				OFFSET 0.000000 10.207942 -0.272212 
				CHANNELS 3 Xrotation Zrotation Yrotation
				JOINT head
				{
					OFFSET 0.000000 3.130431 0.000000 
					CHANNELS 3 Xrotation Zrotation Yrotation
					End Site
					{
						OFFSET 0.000000 3.130435 0.000000 
					}
				}
			}
			JOINT lCollar
			{
				OFFSET 3.470700 6.669187 -0.816635 
				CHANNELS 3 Yrotation Zrotation Xrotation
				JOINT lShldr
				{
					OFFSET 3.198488 0.000000 0.000000 
					CHANNELS 3 Zrotation Yrotation Xrotation
					JOINT lForeArm
					{
						OFFSET 10.139888 0.000000 0.000000 
						CHANNELS 3 Yrotation Zrotation Xrotation
						JOINT lHand
						{
							OFFSET 8.370511 0.000000 0.000000 
							CHANNELS 3 Zrotation Yrotation Xrotation
							End Site
							{
								OFFSET 4.083176 0.000000 0.000000 
							}
						}
					}
				}
			}
			JOINT rCollar
			{
				OFFSET -3.470700 6.669187 -0.816635 
				CHANNELS 3 Yrotation Zrotation Xrotation
				JOINT rShldr
				{
					OFFSET -3.198488 0.000000 0.000000 
					CHANNELS 3 Zrotation Yrotation Xrotation
					JOINT rForeArm
					{
						OFFSET -10.139888 0.000000 0.000000 
						CHANNELS 3 Yrotation Zrotation Xrotation
						JOINT rHand
						{
							OFFSET -8.370511 0.000000 0.000000 
							CHANNELS 3 Zrotation Yrotation Xrotation
							End Site
							{
								OFFSET -4.083176 0.000000 0.000000 
							}
						}
					}
				}
			}
		}
	}
	JOINT lThigh
	{
		OFFSET 5.308129 -1.633274 1.361059 
		CHANNELS 3 Xrotation Zrotation Yrotation
		JOINT lShin
		{
			OFFSET -2.041588 -20.007561 0.000000 
			CHANNELS 3 Xrotation Zrotation Yrotation
			JOINT lFoot
			{
				OFFSET 0.000000 -19.190928 -1.224953 
				CHANNELS 3 Xrotation Yrotation Zrotation
				End Site
				{
					OFFSET 0.000000 -2.449906 4.627600 
				}
			}
		}
	}
	JOINT rThigh
	{
		OFFSET -5.308129 -1.633274 1.361059 
		CHANNELS 3 Xrotation Zrotation Yrotation
		JOINT rShin
		{
			OFFSET 2.041588 -20.007561 0.000000 
			CHANNELS 3 Xrotation Zrotation Yrotation
			JOINT rFoot
			{
				OFFSET 0.000000 -19.190928 -1.224953 
				CHANNELS 3 Xrotation Yrotation Zrotation
				End Site
				{
					OFFSET 0.000000 -2.449906 4.627600 
				}
			}
		}
	}
}
MOTION
Frames: 11
Frame Time: 0.033333
-52.566563 49.075844 30.398853 -3.684339 3.021130 66.530540 0.000000 0.000000 0.000000 -1.888723 4.198999 -0.587225 -1.085166 5.789655 1.246714 4.759707 0.165971 1.328148 -5.632090 5.995245 -0.684691 -76.068764 -69.850281 85.492485 -101.565033 15.331925 -32.901897 -61.071358 -16.076483 8.337670 12.714439 15.168144 -3.248220 -96.445099 119.572708 -53.346180 87.717812 -25.598303 57.949284 -66.717407 -7.335926 -0.980389 -2.177879 21.122986 13.845586 16.010239 -3.906155 1.628068 -4.356702 0.300139 -8.200883 0.273649 1.422330 -5.024741 18.862320 4.946320 -19.574770 -15.544575 -0.162418 0.759807 
-52.442226 49.018745 30.384054 -3.635114 3.111950 66.177094 0.000000 0.000000 0.000000 -1.956379 4.130643 -0.587229 -0.820379 6.189904 1.267162 4.875896 0.517424 1.396604 -5.610548 6.604375 -0.724479 -76.930298 -69.870865 85.961296 -101.459991 15.360059 -33.364967 -60.969738 -15.362294 7.883091 12.928419 15.877070 -3.417054 81.882172 60.688114 125.831635 88.453255 -25.965805 57.819820 -66.711845 -7.226989 -1.061364 -1.406978 21.132172 14.209574 16.435329 -4.071348 -0.127708 -5.666205 0.461725 -8.535587 0.108737 1.284768 -4.978699 19.706541 4.744419 -19.302282 -16.010687 -0.191292 1.075489 
-52.347881 49.120594 30.384897 -3.544194 3.320931 65.799660 0.000000 0.000000 0.000000 -1.894722 3.925671 -0.430685 -0.602781 6.599885 1.298477 4.692253 0.595526 1.396612 -5.571078 7.106919 -0.676319 -78.319183 -69.808533 86.773819 -100.973015 15.259618 -32.920486 -60.752079 -15.607658 7.997422 13.149702 16.410156 -3.434809 79.838348 60.629204 124.434547 89.137589 -26.278904 57.985424 -66.179787 -7.007226 -1.218323 -0.440944 20.823708 14.615773 15.274929 -4.393666 0.417714 -5.120493 0.368765 -8.137369 0.846580 1.000924 -5.058016 18.672609 4.754460 -18.918324 -15.552855 -0.164005 0.935181 
-52.219074 49.129356 30.319569 -3.192717 3.499562 65.774025 0.000000 0.000000 0.000000 -1.904238 3.710618 -0.752905 -0.675719 6.522244 1.101091 4.758228 0.839558 1.494409 -5.899956 6.747379 -0.655458 -77.827072 -69.780449 86.413002 -101.172623 15.331683 -32.873573 -60.486229 -15.556237 7.905146 12.824979 16.217913 -3.366169 79.319817 60.670502 124.416092 89.803864 -26.622021 58.672085 -64.071571 -6.852214 -1.402061 -0.646181 20.217842 14.153613 15.402440 -4.403430 1.857596 -4.896513 0.372982 -7.928541 0.865074 0.476949 -5.261641 18.962215 4.624962 -18.466078 -15.727393 -0.187007 1.077230 
-52.128227 49.153576 30.253675 -2.960180 3.514315 65.815048 0.000000 0.000000 0.000000 -1.883073 3.700383 -1.183589 -0.928780 6.278399 0.972745 4.807931 1.122576 1.660603 -6.219136 6.358213 -0.635759 -77.630516 -69.648064 86.087875 -101.424942 15.356194 -32.325504 -60.023605 -15.342687 7.667808 11.711291 15.187907 -3.082438 80.993935 60.762100 125.790215 89.634773 -26.551834 58.910191 -62.809792 -6.482637 -1.676088 -0.723208 19.940985 13.977564 15.718470 -4.570556 1.735256 -5.312153 0.362504 -7.443439 0.860427 0.187582 -5.361634 18.900442 4.532772 -18.367985 -15.716413 -0.229081 1.219568 
-52.055122 49.116325 30.201096 -2.923331 3.192066 66.049141 0.000000 0.000000 0.000000 -2.093288 3.797213 -1.673369 -1.116071 6.288613 0.688038 4.408736 1.425117 1.748720 -6.653680 6.590447 -0.742341 -77.786263 -69.403229 86.064896 -101.633080 15.409129 -32.087769 -59.385075 -15.014465 7.330688 11.317398 15.334662 -3.256758 80.674599 60.765591 125.571770 90.112076 -26.437412 58.968136 -62.048279 -7.004890 -1.397597 -1.172977 20.033962 13.763986 15.970856 -4.482197 1.531165 -5.532361 0.390133 -7.840280 0.448726 0.155773 -5.441923 19.272816 4.652934 -18.543076 -15.919428 -0.242866 1.388917 
-52.027580 49.102665 30.133997 -2.766216 3.183803 66.018486 0.000000 0.000000 0.000000 -2.015462 3.669885 -1.888400 -1.315313 6.210633 0.570477 4.465800 1.639809 1.807577 -6.917297 6.429248 -0.673412 -77.612350 -69.322052 86.053452 -101.777733 15.560283 -31.504105 -59.089497 -15.054698 7.295428 10.999358 15.169118 -3.128986 80.388092 60.818684 125.328682 90.263199 -26.388252 59.687222 -61.031300 -7.289947 -1.279559 -1.123547 19.842016 13.648636 15.629506 -4.482382 1.986467 -5.261323 0.382934 -8.060306 0.176500 -0.036735 -5.444510 19.641933 4.507454 -18.535841 -16.053337 -0.275362 1.603174 
-52.011410 49.099525 30.084641 -2.853220 3.358520 65.666008 0.000000 0.000000 0.000000 -1.693682 3.591701 -1.937136 -1.272549 6.259427 0.599605 4.125469 1.922798 1.876238 -6.731093 6.658419 -0.400592 -78.646957 -69.025726 87.034691 -101.975868 15.786837 -30.520615 -58.863255 -14.893076 7.144854 10.849324 15.480755 -2.843542 79.825333 60.714741 125.403465 90.691383 -26.751268 60.310188 -60.058460 -8.263111 -0.779395 -0.147228 19.800974 14.032950 14.532139 -4.568760 2.403747 -4.766673 0.386606 -8.715117 0.244604 -0.123161 -5.465346 19.789331 4.479035 -18.275131 -16.023340 -0.262819 1.632035 
-52.010296 49.096832 30.037827 -2.813279 3.274888 65.418640 0.000000 0.000000 0.000000 -1.630159 3.572323 -1.868302 -1.152278 6.093250 0.737613 2.801002 2.088782 1.827450 -7.093385 6.358254 -0.322146 -77.218567 -69.008705 85.967255 -102.380455 15.798063 -31.035536 -57.802544 -14.508316 6.703551 11.109200 15.520717 -2.822808 78.744888 60.303249 123.871384 91.022293 -26.418453 60.686451 -59.483196 -8.938632 -0.422586 0.164235 19.739910 14.261758 14.081649 -4.782793 2.436910 -4.647146 0.357988 -8.957381 0.000577 -0.252215 -5.451103 19.948212 4.441564 -18.005520 -16.013432 -0.271885 1.649093 
-52.009056 49.110893 29.965406 -2.800332 3.300068 65.382744 0.000000 0.000000 0.000000 -1.437585 3.474520 -1.966383 -1.253605 6.190540 0.963034 2.749176 2.166374 2.199017 -7.033451 6.386344 -0.156281 -77.562431 -68.808624 86.516556 -102.601509 15.991599 -30.773968 -57.143219 -14.350026 6.478475 10.857354 15.394506 -2.602829 78.405373 59.982613 122.997940 91.201836 -26.351006 62.446220 -56.814030 -8.530729 -0.813936 0.164040 19.593405 14.131983 13.983871 -4.694930 2.658599 -4.544852 0.382366 -8.965471 0.069176 -0.367872 -5.522902 19.852127 4.472063 -17.803822 -15.915842 -0.274935 1.647099 
-52.010983 49.119366 29.911774 -2.848671 3.082231 65.444824 0.000000 0.000000 0.000000 -1.428612 3.396320 -2.024875 -1.047367 6.286943 1.493626 1.161176 3.024300 2.571993 -6.965521 6.638879 -0.146684 -78.247887 -68.803185 87.482620 -102.685326 16.151485 -30.297049 -56.646667 -14.602571 6.517575 10.686681 15.465729 -2.576371 78.474602 59.537762 122.692505 91.368782 -26.065876 62.297249 -56.883148 -8.531693 -0.803795 -0.069039 19.547768 13.944158 13.905693 -4.499713 3.035941 -4.434055 0.393017 -9.191091 -0.047290 -0.289895 -5.466557 19.675200 4.500311 -17.832901 -15.779125 -0.275881 1.646134 
